<svg xmlns="http://www.w3.org/2000/svg" viewBox="0 0 1400 1100" width="1400" height="1100">
  <defs>
    <linearGradient id="seaGrad" x1="0%" y1="0%" x2="100%" y2="100%">
      <stop offset="0%" style="stop-color:#3d5636"/>
      <stop offset="100%" style="stop-color:#2d4a30"/>
    </linearGradient>
  </defs>
  
  <!-- Background (parchment color) -->
  <rect width="1400" height="1100" fill="#f5ecd0"/>
  
  <!-- Legend (top-left) -->
  <g transform="translate(50, 50)" font-family="Georgia, 'Times New Roman', serif" font-size="15">
    <rect x="0" y="0" width="20" height="12" fill="#c41e3a"/>
    <text x="28" y="11" fill="#1a1a1a">rot die Berge.</text>
    <rect x="0" y="20" width="20" height="12" fill="#d4a017"/>
    <text x="28" y="31" fill="#1a1a1a">gelb der Sand.</text>
    <rect x="0" y="40" width="20" height="12" fill="#6b8090"/>
    <text x="28" y="51" fill="#1a1a1a">graublau die Flüsse</text>
    <rect x="0" y="60" width="20" height="12" fill="#3d5a3d"/>
    <text x="28" y="71" fill="#1a1a1a">grün die Meere.</text>
  </g>
  
  <!-- Compass (top-right) -->
  <g transform="translate(1280, 80)">
    <circle cx="0" cy="0" r="40" fill="none" stroke="#1a1a1a" stroke-width="1.5"/>
    <line x1="0" y1="-35" x2="0" y2="35" stroke="#1a1a1a" stroke-width="1.5"/>
    <line x1="-35" y1="0" x2="35" y2="0" stroke="#1a1a1a" stroke-width="1.5"/>
    <text x="0" y="-50" text-anchor="middle" font-family="Georgia, serif" font-size="16" fill="#1a1a1a">N</text>
    <polygon points="0,-35 -6,-22 6,-22" fill="#1a1a1a"/>
    <text x="0" y="62" text-anchor="middle" font-family="Georgia, serif" font-size="16" fill="#1a1a1a">S</text>
    <text x="-55" y="6" text-anchor="middle" font-family="Georgia, serif" font-size="16" fill="#1a1a1a">W</text>
    <text x="55" y="6" text-anchor="middle" font-family="Georgia, serif" font-size="16" fill="#1a1a1a">E</text>
  </g>
  
  <!-- Red decorative corner ornaments -->
  <!-- Top-right corner ornament (elaborate) -->
  <g fill="#c41e3a" transform="translate(1200, 130)">
    <path d="M 0 0 Q 30 -20 50 10 Q 60 40 40 50" fill="none" stroke="#c41e3a" stroke-width="5"/>
    <circle cx="55" cy="15" r="8"/>
    <circle cx="70" cy="5" r="6"/>
    <circle cx="75" cy="25" r="5"/>
    <circle cx="85" cy="15" r="5"/>
    <circle cx="90" cy="30" r="4"/>
    <circle cx="65" cy="40" r="4"/>
  </g>
  
  <!-- Bottom-left corner ornament -->
  <g fill="#c41e3a" transform="translate(130, 920)">
    <path d="M 0 0 Q -30 20 -50 -10 Q -60 -40 -40 -50" fill="none" stroke="#c41e3a" stroke-width="5"/>
  </g>
  
  <!-- Main circular map boundary - thick dark teal border -->
  <ellipse cx="700" cy="550" rx="530" ry="440" fill="#f8f4e5" stroke="#1a3a3a" stroke-width="18"/>
  
  <!-- Inner green dotted border -->
  <ellipse cx="700" cy="550" rx="505" ry="415" fill="none" stroke="#5a8a5a" stroke-width="4" stroke-dasharray="3,10"/>
  
  <!-- Semi-circular indentations at top of circle -->
  <path d="M 480 125 Q 510 165 540 125" fill="#f5ecd0" stroke="#1a3a3a" stroke-width="10"/>
  <path d="M 600 115 Q 630 155 660 115" fill="#f5ecd0" stroke="#1a3a3a" stroke-width="10"/>
  <path d="M 720 115 Q 750 155 780 115" fill="#f5ecd0" stroke="#1a3a3a" stroke-width="10"/>
  <path d="M 840 125 Q 870 165 900 125" fill="#f5ecd0" stroke="#1a3a3a" stroke-width="10"/>
  
  <!-- Caspian Sea - large dark body on left side -->
  <path d="M 230 400 
           Q 200 480 210 560 
           Q 220 650 250 730 
           Q 290 800 340 780 
           Q 380 750 365 680 
           Q 350 610 340 540 
           Q 330 470 320 420 
           Q 300 370 230 400" 
        fill="#2d4a30" stroke="#1a3a2a" stroke-width="3"/>
  
  <!-- Rivers (Gray-blue horizontal wavy bands) -->
  <!-- Upper river band with greenish tint -->
  <path d="M 340 300 Q 500 320 650 305 Q 800 290 950 310 Q 1050 325 1150 305" 
        fill="none" stroke="#6b8590" stroke-width="12" stroke-linecap="round" opacity="0.6"/>
  
  <!-- Main central river band (broader, most prominent) -->
  <path d="M 380 440 Q 550 465 700 445 Q 850 425 1000 455 Q 1100 475 1180 450" 
        fill="none" stroke="#6b8590" stroke-width="16" stroke-linecap="round" opacity="0.65"/>
  
  <!-- Lower river band -->
  <path d="M 300 620 Q 480 650 650 630 Q 820 610 980 640 Q 1100 660 1170 635" 
        fill="none" stroke="#6b8590" stroke-width="12" stroke-linecap="round" opacity="0.6"/>
  
  <!-- Green water bodies (lakes) -->
  <ellipse cx="780" cy="365" rx="55" ry="35" fill="#4a7a4a" opacity="0.7"/>
  <ellipse cx="920" cy="340" rx="40" ry="28" fill="#4a7a4a" opacity="0.7"/>
  
  <!-- Mountain ranges (Red rectangular blocks) -->
  <!-- Top region mountains -->
  <rect x="310" y="190" width="45" height="22" fill="#c41e3a"/>
  <rect x="400" y="175" width="55" height="20" fill="#c41e3a"/>
  <rect x="520" y="200" width="65" height="24" fill="#c41e3a"/>
  <rect x="620" y="180" width="50" height="20" fill="#c41e3a"/>
  <rect x="720" y="195" width="60" height="22" fill="#c41e3a"/>
  <rect x="820" y="175" width="48" height="18" fill="#c41e3a"/>
  <rect x="920" y="190" width="55" height="20" fill="#c41e3a"/>
  
  <!-- Upper-middle region -->
  <rect x="380" y="270" width="50" height="18" fill="#c41e3a"/>
  <rect x="470" y="285" width="45" height="16" fill="#c41e3a"/>
  <rect x="560" y="265" width="55" height="20" fill="#c41e3a"/>
  <rect x="660" y="280" width="48" height="18" fill="#c41e3a"/>
  <rect x="760" y="260" width="52" height="16" fill="#c41e3a"/>
  <rect x="860" y="275" width="50" height="18" fill="#c41e3a"/>
  <rect x="960" y="258" width="45" height="16" fill="#c41e3a"/>
  
  <!-- Central corridor mountains -->
  <rect x="450" y="360" width="60" height="24" fill="#c41e3a"/>
  <rect x="560" y="375" width="55" height="20" fill="#c41e3a"/>
  <rect x="670" y="355" width="58" height="22" fill="#c41e3a"/>
  <rect x="880" y="365" width="52" height="18" fill="#c41e3a"/>
  <rect x="980" y="380" width="48" height="16" fill="#c41e3a"/>
  
  <!-- Eastern vertical mountains -->
  <rect x="1050" y="280" width="22" height="55" fill="#c41e3a"/>
  <rect x="1075" y="350" width="20" height="60" fill="#c41e3a"/>
  <rect x="1090" y="430" width="22" height="65" fill="#c41e3a"/>
  <rect x="1100" y="520" width="20" height="55" fill="#c41e3a"/>
  <rect x="1085" y="600" width="22" height="50" fill="#c41e3a"/>
  
  <!-- Mid-section mountains -->
  <rect x="380" y="470" width="52" height="18" fill="#c41e3a"/>
  <rect x="470" y="490" width="48" height="16" fill="#c41e3a"/>
  <rect x="560" y="475" width="58" height="20" fill="#c41e3a"/>
  <rect x="670" y="495" width="52" height="18" fill="#c41e3a"/>
  <rect x="770" y="480" width="50" height="16" fill="#c41e3a"/>
  <rect x="870" y="500" width="55" height="18" fill="#c41e3a"/>
  <rect x="970" y="485" width="48" height="16" fill="#c41e3a"/>
  
  <!-- Lower mountains -->
  <rect x="340" y="570" width="48" height="16" fill="#c41e3a"/>
  <rect x="430" y="590" width="55" height="18" fill="#c41e3a"/>
  <rect x="530" y="575" width="52" height="16" fill="#c41e3a"/>
  <rect x="640" y="600" width="60" height="20" fill="#c41e3a"/>
  <rect x="750" y="585" width="55" height="18" fill="#c41e3a"/>
  <rect x="860" y="605" width="52" height="16" fill="#c41e3a"/>
  
  <!-- Southern mountains -->
  <rect x="290" y="700" width="65" height="24" fill="#c41e3a"/>
  <rect x="400" y="720" width="60" height="22" fill="#c41e3a"/>
  <rect x="510" y="705" width="55" height="20" fill="#c41e3a"/>
  <rect x="620" y="730" width="65" height="24" fill="#c41e3a"/>
  <rect x="740" y="715" width="58" height="22" fill="#c41e3a"/>
  <rect x="860" y="740" width="55" height="20" fill="#c41e3a"/>
  <rect x="970" y="725" width="50" height="18" fill="#c41e3a"/>
  
  <!-- Yellow sand dots - scattered throughout (matching original) -->
  <!-- Upper region -->
  <g fill="#d4a017">
    <circle cx="450" cy="230" r="8"/>
    <circle cx="500" cy="248" r="7"/>
    <circle cx="580" cy="235" r="8"/>
    <circle cx="660" cy="220" r="7"/>
    <circle cx="740" cy="240" r="8"/>
    <circle cx="820" cy="225" r="7"/>
    <circle cx="900" cy="245" r="8"/>
    <circle cx="980" cy="230" r="7"/>
  </g>
  
  <!-- Upper-middle region -->
  <g fill="#d4a017">
    <circle cx="380" cy="320" r="7"/>
    <circle cx="440" cy="340" r="8"/>
    <circle cx="520" cy="325" r="7"/>
    <circle cx="600" cy="345" r="8"/>
    <circle cx="700" cy="330" r="7"/>
    <circle cx="860" cy="320" r="7"/>
    <circle cx="940" cy="340" r="8"/>
    <circle cx="1020" cy="325" r="7"/>
  </g>
  
  <!-- Central region (most dense) -->
  <g fill="#d4a017">
    <circle cx="400" cy="415" r="8"/>
    <circle cx="480" cy="435" r="7"/>
    <circle cx="540" cy="420" r="8"/>
    <circle cx="620" cy="445" r="7"/>
    <circle cx="740" cy="430" r="8"/>
    <circle cx="820" cy="450" r="7"/>
    <circle cx="900" cy="435" r="8"/>
    <circle cx="980" cy="455" r="7"/>
    <circle cx="1040" cy="440" r="8"/>
  </g>
  
  <!-- Lower-central region -->
  <g fill="#d4a017">
    <circle cx="380" cy="530" r="7"/>
    <circle cx="460" cy="550" r="8"/>
    <circle cx="540" cy="535" r="7"/>
    <circle cx="630" cy="555" r="8"/>
    <circle cx="720" cy="540" r="7"/>
    <circle cx="810" cy="560" r="8"/>
    <circle cx="900" cy="545" r="7"/>
    <circle cx="990" cy="565" r="8"/>
  </g>
  
  <!-- Lower region -->
  <g fill="#d4a017">
    <circle cx="420" cy="650" r="7"/>
    <circle cx="510" cy="670" r="8"/>
    <circle cx="600" cy="655" r="7"/>
    <circle cx="700" cy="680" r="8"/>
    <circle cx="800" cy="665" r="7"/>
    <circle cx="900" cy="685" r="8"/>
    <circle cx="980" cy="670" r="7"/>
  </g>
  
  <!-- Southern region -->
  <g fill="#d4a017">
    <circle cx="360" cy="770" r="7"/>
    <circle cx="460" cy="795" r="8"/>
    <circle cx="570" cy="780" r="7"/>
    <circle cx="690" cy="805" r="8"/>
    <circle cx="810" cy="790" r="7"/>
    <circle cx="920" cy="810" r="8"/>
    <circle cx="1020" cy="795" r="7"/>
  </g>
  
  <!-- Tree symbol (top center) -->
  <g transform="translate(700, 200)">
    <path d="M 0 15 L 0 45" stroke="#2d4a30" stroke-width="5"/>
    <ellipse cx="0" cy="5" rx="18" ry="25" fill="#3d6a3d"/>
    <ellipse cx="-14" cy="12" rx="12" ry="15" fill="#3d6a3d"/>
    <ellipse cx="14" cy="12" rx="12" ry="15" fill="#3d6a3d"/>
  </g>
  
  <!-- Tower/Minaret symbol (in Caspian Sea area) -->
  <g transform="translate(285, 520)">
    <rect x="-12" y="0" width="24" height="60" fill="#1a1a1a"/>
    <polygon points="-14,0 0,-25 14,0" fill="#1a1a1a"/>
  </g>
  
  <!-- Place names - carefully positioned to match original -->
  <g font-family="Georgia, 'Times New Roman', serif" fill="#1a1a1a">
    <!-- Top region names -->
    <text x="700" y="155" text-anchor="middle" font-size="15">gābrākā</text>
    <text x="550" y="185" text-anchor="middle" font-size="14">māsīn</text>
    <text x="370" y="210" text-anchor="middle" font-size="13">gafū</text>
    <text x="900" y="170" text-anchor="middle" font-size="12" font-style="italic">fīgāī i umāq</text>
    
    <!-- Upper-middle region -->
    <text x="400" y="250" text-anchor="middle" font-size="12">baldat al 'alīna minā turk</text>
    <text x="650" y="210" text-anchor="middle" font-size="14" font-weight="bold">hātūn saīnī</text>
    <text x="800" y="225" text-anchor="middle" font-size="13">bilād uīgur</text>
    <text x="980" y="215" text-anchor="middle" font-size="11" font-style="italic">arḍ qālīm</text>
    <text x="1040" y="235" text-anchor="middle" font-size="11">ḳoṭan</text>
    
    <!-- Central-upper names -->
    <text x="480" y="300" text-anchor="middle" font-size="13">bīšbulak</text>
    <text x="600" y="315" text-anchor="middle" font-size="13">ganbulak</text>
    <text x="720" y="295" text-anchor="middle" font-size="13">kūǧū</text>
    <text x="840" y="310" text-anchor="middle" font-size="13">salām</text>
    
    <!-- Silk Road corridor names -->
    <text x="400" y="355" text-anchor="middle" font-size="12">fīǧāfī bāškent</text>
    <text x="520" y="395" text-anchor="middle" font-size="12">fīǧāfī jamak</text>
    <text x="320" y="385" text-anchor="middle" font-size="11" font-style="italic">ūādī ile</text>
    <text x="430" y="430" text-anchor="middle" font-size="12">fīǧāfī saumal</text>
    <text x="580" y="410" text-anchor="middle" font-size="12">fīǧāfī tatār</text>
    
    <!-- Central region - important cities -->
    <text x="360" y="465" text-anchor="middle" font-size="11">baldat sakāl muhdat kaf</text>
    <text x="300" y="495" text-anchor="middle" font-size="12">bulgār</text>
    <text x="420" y="510" text-anchor="middle" font-size="12">ǧebel karāǧolk</text>
    <text x="530" y="535" text-anchor="middle" font-size="12">bilād al ǧazna</text>
    <text x="640" y="475" text-anchor="middle" font-size="12">taraz</text>
    <text x="730" y="510" text-anchor="middle" font-size="12">bālāsāgūn</text>
    
    <!-- Kashgar region (prominent) -->
    <text x="830" y="460" text-anchor="middle" font-size="15" font-weight="bold">kašǧar</text>
    <text x="920" y="490" text-anchor="middle" font-size="12">jārkend</text>
    <text x="870" y="530" text-anchor="middle" font-size="12">kāšmīn</text>
    
    <!-- Ferghana and surroundings -->
    <text x="640" y="565" text-anchor="middle" font-size="12" font-style="italic">ferġānān</text>
    <text x="480" y="595" text-anchor="middle" font-size="12">māwara</text>
    <text x="560" y="620" text-anchor="middle" font-size="12">ǧeīhūn</text>
    
    <!-- Southern regions -->
    <text x="400" y="650" text-anchor="middle" font-size="12">būxārezm</text>
    <text x="520" y="680" text-anchor="middle" font-size="12">ramī</text>
    <text x="650" y="720" text-anchor="middle" font-size="12">arḍ ḥorāsān</text>
    <text x="430" y="740" text-anchor="middle" font-size="11">arḍ al ǧilālma</text>
    <text x="580" y="760" text-anchor="middle" font-size="11">arḍ āderbāīǧān</text>
    <text x="730" y="775" text-anchor="middle" font-size="11">arḍ al 'irākīn</text>
    
    <!-- Far south names -->
    <text x="350" y="810" text-anchor="middle" font-size="11">arḍ al šām</text>
    <text x="470" y="830" text-anchor="middle" font-size="11">arḍ al akrād</text>
    <text x="590" y="850" text-anchor="middle" font-size="11">ḥudūd miṣr</text>
    <text x="730" y="825" text-anchor="middle" font-size="12">arḍ al ḥeǧāz</text>
    <text x="400" y="880" text-anchor="middle" font-size="11" font-style="italic">al iskanderīja</text>
    <text x="650" y="895" text-anchor="middle" font-size="11">arḍ al kaīrouān ūa ǧaīruha</text>
    <text x="900" y="850" text-anchor="middle" font-size="11">bilād al zang</text>
    
    <!-- Eastern labels -->
    <text x="1040" y="415" text-anchor="middle" font-size="11">serandīb</text>
    <text x="1070" y="475" text-anchor="middle" font-size="11">ǧebel serandīb</text>
    <text x="1030" y="550" text-anchor="middle" font-size="11">bilād hind</text>
    <text x="1010" y="620" text-anchor="middle" font-size="11">selīūn</text>
    <text x="1050" y="690" text-anchor="middle" font-size="11">bilād sind</text>
    
    <!-- Southeast names -->
    <text x="870" y="635" text-anchor="middle" font-size="11">bilād karma</text>
    <text x="790" y="670" text-anchor="middle" font-size="11">bilād fārs</text>
    <text x="900" y="710" text-anchor="middle" font-size="11">bilād ḥuzīstān</text>
    <text x="1000" y="750" text-anchor="middle" font-size="11">arḍ al jāmen</text>
    
    <!-- Right side vertical text -->
    <text x="1130" y="390" text-anchor="middle" font-size="11" font-style="italic">arḍ ǧāǧūǧ ūa māǧūǧ</text>
    
    <!-- Left side labels near Caspian -->
    <text x="200" y="450" text-anchor="middle" font-size="10" transform="rotate(-90, 200, 450)">sūsūn ue m.upenuu u neyenī</text>
    <text x="280" y="620" text-anchor="middle" font-size="11">ūarank</text>
    <text x="330" y="670" text-anchor="middle" font-size="11">rūs</text>
    <text x="300" y="720" text-anchor="middle" font-size="11">šaḳāliba</text>
    <text x="270" y="790" text-anchor="middle" font-size="11">abāsğ</text>
    <text x="350" y="750" text-anchor="middle" font-size="11">bāǧīnak</text>
    
    <!-- West side -->
    <text x="370" y="560" text-anchor="middle" font-size="10">māsakīn kefǧak</text>
    <text x="320" y="590" text-anchor="middle" font-size="10">šaǧba mīnhū</text>
  </g>
  
  <!-- Directional labels on edges -->
  <text x="100" y="550" font-family="Georgia, serif" font-size="22" fill="#1a1a1a" font-weight="bold"
        transform="rotate(-90, 100, 550)">Nord</text>
  <text x="1300" y="550" font-family="Georgia, serif" font-size="22" fill="#1a1a1a" font-weight="bold"
        transform="rotate(90, 1300, 550)">Süd</text>
  
  <!-- Bottom text -->
  <text x="80" y="1020" font-family="Georgia, serif" font-size="24" fill="#1a1a1a" font-weight="bold">Karte</text>
  <text x="80" y="1055" font-family="Georgia, serif" font-size="18" fill="#1a1a1a">der Turkstämme</text>
  <text x="1220" y="1040" font-family="Georgia, serif" font-size="16" fill="#555">466 d. Flucht.</text>
</svg>
